<!-- удаляем все fill -->
<svg width="0" height="0" class="hidden">
  <symbol  xmlns="http://www.w3.org/2000/svg" viewBox="0 0 18 19" id="share">
    <path d="M14.625 13.063a2.8 2.8 0 00-1.767.625l-4.856-3.513a3.766 3.766 0 000-1.35l4.856-3.513a2.8 2.8 0 001.767.625 2.815 2.815 0 002.813-2.812A2.815 2.815 0 0014.624.312a2.815 2.815 0 00-2.702 3.593L7.31 7.245A3.749 3.749 0 00.562 9.5a3.749 3.749 0 006.748 2.255l4.613 3.34a2.815 2.815 0 002.702 3.593 2.815 2.815 0 002.813-2.813 2.815 2.815 0 00-2.813-2.813zm0-11.157a1.22 1.22 0 11-.001 2.439 1.22 1.22 0 01.001-2.439zM4.312 11.562A2.066 2.066 0 012.25 9.5c0-1.137.926-2.063 2.063-2.063 1.136 0 2.062.926 2.062 2.063a2.066 2.066 0 01-2.063 2.063zm10.313 5.532a1.22 1.22 0 11.001-2.439 1.22 1.22 0 01-.001 2.439z" ></path>
  </symbol>
  <symbol  xmlns="http://www.w3.org/2000/svg" viewBox="0 0 22 21" id="comments">
    <path d="M9.875 10.5a1.125 1.125 0 102.25 0 1.125 1.125 0 00-2.25 0zm4.688 0a1.125 1.125 0 102.25 0 1.125 1.125 0 00-2.25 0zm-9.375 0a1.125 1.125 0 102.25 0 1.125 1.125 0 00-2.25 0zm15.497-4.069A10.503 10.503 0 0011 0h-.047A10.476 10.476 0 00.5 10.55a10.533 10.533 0 001.125 4.684v3.563a1.078 1.078 0 001.078 1.078h3.565A10.533 10.533 0 0010.953 21h.05c1.403 0 2.765-.272 4.047-.804a10.417 10.417 0 003.347-2.231 10.475 10.475 0 003.103-7.418 10.46 10.46 0 00-.815-4.116zm-3.542 10.266A8.673 8.673 0 0111 19.219h-.04a8.75 8.75 0 01-4.057-1.02l-.197-.105h-3.3v-3.3l-.105-.197a8.75 8.75 0 01-1.02-4.057 8.665 8.665 0 012.522-6.183 8.653 8.653 0 016.16-2.576h.04c1.171 0 2.308.228 3.38.678a8.664 8.664 0 012.788 1.875 8.683 8.683 0 012.552 6.206 8.685 8.685 0 01-2.58 6.157z" ></path>
  </symbol>
  <symbol  xmlns="http://www.w3.org/2000/svg" viewBox="0 0 20 21" id="likes">
    <path d="M18.763 11.01c.394-.52.612-1.158.612-1.822 0-1.052-.588-2.048-1.535-2.604a1.586 1.586 0 00-.804-.218h-5.62l.14-2.88a2.509 2.509 0 00-.691-1.861A2.499 2.499 0 009.039.842c-1.219 0-2.297.82-2.62 1.995l-2.014 7.289h-3.03a.75.75 0 00-.75.75v8.531c0 .415.335.75.75.75h14.093c.216 0 .427-.042.621-.127a3.014 3.014 0 001.709-3.642 3.016 3.016 0 00.485-2.688c.394-.52.611-1.158.611-1.821a3.2 3.2 0 00-.13-.87zm-16.45 7.46v-6.657H4.21v6.656H2.312zm14.915-8.274l-.513.445.326.596a1.339 1.339 0 01-.298 1.648l-.513.445.325.595a1.338 1.338 0 01-.298 1.648l-.512.445.325.595a1.332 1.332 0 01-.626 1.854H5.711v-6.729L8.043 3.29a1.034 1.034 0 01.989-.757.833.833 0 01.837.872l-.225 4.65h7.368c.418.255.675.687.675 1.134 0 .387-.168.753-.459 1.008z" ></path>
  </symbol>
  <symbol  xmlns="http://www.w3.org/2000/svg" viewBox="0 0 20 19" id="save">
    <path d="M18.937 4.374L15.126.564A1.494 1.494 0 0014.5.187V.125H1.375a.75.75 0 00-.75.75v17.25c0 .415.335.75.75.75h17.25a.75.75 0 00.75-.75V5.434c0-.399-.157-.779-.438-1.06zM7 1.813h6V4.25H7V1.812zm10.688 15.374H2.313V1.813H5.5V5c0 .415.335.75.75.75h7.5A.75.75 0 0014.5 5V2.323l3.188 3.188v11.677zM10 7.86a3.376 3.376 0 10.002 6.752A3.376 3.376 0 0010 7.86zm0 5.25a1.875 1.875 0 11-.001-3.749A1.875 1.875 0 0110 13.11z" ></path>
  </symbol>
    <symbol xmlns="http://www.w3.org/2000/svg" viewBox="0 0 22 22" id="exit">
    <path d="M15.537 1.927a.187.187 0 00-.272.17V3.6c0 .129.068.248.176.319A8.255 8.255 0 0116.9 5.087a8.319 8.319 0 012.442 5.906 8.33 8.33 0 01-2.442 5.906 8.274 8.274 0 01-2.653 1.79 8.265 8.265 0 01-3.246.657c-1.125 0-2.22-.22-3.246-.656A8.274 8.274 0 015.1 16.9a8.32 8.32 0 01-2.442-5.906A8.329 8.329 0 015.1 5.086 8.473 8.473 0 016.558 3.92a.374.374 0 00.176-.32V2.095c0-.14-.147-.23-.272-.169a10.14 10.14 0 00-5.587 8.941C.809 16.463 5.387 21.113 10.98 21.125c5.602.012 10.144-4.53 10.144-10.134 0-3.966-2.274-7.4-5.588-9.064zM10.25 12.125h1.5a.188.188 0 00.187-.188V1.063a.188.188 0 00-.187-.188h-1.5a.188.188 0 00-.188.188v10.874c0 .104.085.188.188.188z"></path>
  </symbol>
</svg>
